# xmcd
#
# Track frame offsets: 
#        150
#        5303
#        23822
#        40080
#        58234
#        79025
#        96381
#        114917
#        139670
#        159839
#        177790
#        201861
#        220734
#        239343
#        258686
#        276565
#        296801
#
# Disc length: 4196 seconds
#
# Revision: 4
# Processed by: cddbd v1.5.2PL0 Copyright (c) Steve Scherf et al.
# Submitted via: ExactAudioCopyFreeDBPlugin 1.0
#
DISCID=f2106211
DTITLE=Wyclef Jean - Welcome To Haiti Creole 101
DYEAR=2004
DGENRE=Reggae
TTITLE0=Jean Dominique Intro
TTITLE1=24 é Tan Pou Viv
TTITLE2=President
TTITLE3=Bicentennial Feat. Sweet Mickey
TTITLE4=Generation X
TTITLE5=Party By The Sea Feat. T-Vice and Buju Banton
TTITLE6=Haitian Mafia Feat. Foxy Brown
TTITLE7=Le Ou Marye
TTITLE8=Fistibal-Festival Feat. Melky and Bud
TTITLE9=La Bamba Feat. Ro-K and Gammy
TTITLE10=Bay Micro'm Volume
TTITLE11=Proud To Be African Feat. 2Face, Sound Sultan and Faze
TTITLE12=Douce
TTITLE13=Lavi New York Feat. Buggah
TTITLE14=Fanm Kreyol Feat. Admiral T.
TTITLE15=Nou Va Rive
TTITLE16=President Remix Feat. Trini Don and Nevada
EXTD=YEAR: 2004
EXTT0=
EXTT1=
EXTT2=
EXTT3=
EXTT4=
EXTT5=
EXTT6=
EXTT7=
EXTT8=
EXTT9=
EXTT10=
EXTT11=
EXTT12=
EXTT13=
EXTT14=
EXTT15=
EXTT16=
PLAYORDER=
